<svg width="25" height="20" viewBox="0 0 25 20" fill="none" xmlns="http://www.w3.org/2000/svg">
<path d="M24.5264 7.06476C24.7168 6.90904 25 7.05472 25 7.30085V17.5733C25 18.9045 23.9502 19.9845 22.6562 19.9845H2.34375C1.0498 19.9845 0 18.9045 0 17.5733V7.30588C0 7.05472 0.27832 6.91406 0.473633 7.06978C1.56738 7.94383 3.01758 9.05396 7.99805 12.7762C9.02832 13.5497 10.7666 15.1773 12.5 15.1672C14.2432 15.1823 16.0156 13.5196 17.0068 12.7762C21.9873 9.05396 23.4326 7.9388 24.5264 7.06476ZM12.5 13.5548C13.6328 13.5749 15.2637 12.088 16.084 11.4752C22.5635 6.63779 23.0566 6.21584 24.5508 5.01026C24.834 4.78422 25 4.43259 25 4.06087V3.10646C25 1.77531 23.9502 0.695312 22.6562 0.695312H2.34375C1.0498 0.695312 0 1.77531 0 3.10646V4.06087C0 4.43259 0.166016 4.77919 0.449219 5.01026C1.94336 6.21081 2.43652 6.63779 8.91602 11.4752C9.73633 12.088 11.3672 13.5749 12.5 13.5548Z" fill="black"/>
</svg>
