<svg width="25" height="26" viewBox="0 0 25 26" fill="none" xmlns="http://www.w3.org/2000/svg">
<path d="M24.2866 18.3734L18.8179 15.9622C18.5843 15.8598 18.3246 15.8382 18.078 15.9007C17.8315 15.9632 17.6113 16.1064 17.4507 16.3088L15.0288 19.3529C11.2279 17.5093 8.16905 14.3624 6.37695 10.4522L9.33594 7.96067C9.53305 7.79575 9.67256 7.56925 9.73335 7.31546C9.79414 7.06167 9.77291 6.79442 9.67285 6.55416L7.3291 0.928125C7.2193 0.66913 7.02508 0.45767 6.77996 0.330207C6.53483 0.202744 6.25416 0.167267 5.98633 0.229893L0.908203 1.43547C0.649985 1.49682 0.419602 1.64639 0.254656 1.85978C0.0897096 2.07317 -5.94829e-05 2.33777 2.95713e-08 2.61041C2.95713e-08 15.495 10.1514 25.9183 22.6563 25.9183C22.9214 25.9184 23.1787 25.8261 23.3862 25.6565C23.5937 25.4868 23.7392 25.2497 23.7988 24.984L24.9707 19.7598C25.0312 19.4829 24.996 19.193 24.8711 18.94C24.7463 18.6869 24.5396 18.4866 24.2866 18.3734V18.3734Z" fill="black"/>
</svg>
