<svg width="25" height="41" viewBox="0 0 25 41" fill="none" xmlns="http://www.w3.org/2000/svg">
<mask id="path-1-inside-1_432:19" fill="white">
<path fill-rule="evenodd" clip-rule="evenodd" d="M25.0001 15.2778L12.5 0L0 15.2778H9.16916V25H15.8309V15.2778H25.0001Z"/>
</mask>
<path d="M12.5 0L12.887 -0.316619L12.5 -0.789592L12.1131 -0.316619L12.5 0ZM25.0001 15.2778V15.7778H26.0552L25.387 14.9612L25.0001 15.2778ZM0 15.2778L-0.386978 14.9612L-1.05512 15.7778H0V15.2778ZM9.16916 15.2778H9.66916V14.7778H9.16916V15.2778ZM9.16916 25H8.66916V25.5H9.16916V25ZM15.8309 25V25.5H16.3309V25H15.8309ZM15.8309 15.2778V14.7778H15.3309V15.2778H15.8309ZM12.1131 0.316619L24.6131 15.5944L25.387 14.9612L12.887 -0.316619L12.1131 0.316619ZM0.386978 15.5944L12.887 0.316619L12.1131 -0.316619L-0.386978 14.9612L0.386978 15.5944ZM9.16916 14.7778H0V15.7778H9.16916V14.7778ZM9.66916 25V15.2778H8.66916V25H9.66916ZM15.8309 24.5H9.16916V25.5H15.8309V24.5ZM15.3309 15.2778V25H16.3309V15.2778H15.3309ZM25.0001 14.7778H15.8309V15.7778H25.0001V14.7778Z" fill="black" mask="url(#path-1-inside-1_432:19)"/>
<path d="M6.289 37.055C6.14967 37.055 6.036 37.0147 5.948 36.934C5.86733 36.846 5.827 36.7323 5.827 36.593V30.015H3.462C3.33 30.015 3.22733 29.982 3.154 29.916C3.08067 29.85 3.044 29.7547 3.044 29.63C3.044 29.5053 3.08067 29.41 3.154 29.344C3.22733 29.278 3.33 29.245 3.462 29.245H9.105C9.237 29.245 9.33967 29.278 9.413 29.344C9.48633 29.41 9.523 29.5053 9.523 29.63C9.523 29.7547 9.48633 29.85 9.413 29.916C9.33967 29.982 9.237 30.015 9.105 30.015H6.74V36.593C6.74 36.7323 6.69967 36.846 6.619 36.934C6.53833 37.0147 6.42833 37.055 6.289 37.055ZM13.2928 37.088C12.5742 37.088 11.9472 36.9267 11.4118 36.604C10.8838 36.2813 10.4768 35.823 10.1908 35.229C9.90482 34.635 9.76182 33.9347 9.76182 33.128C9.76182 32.314 9.90115 31.61 10.1798 31.016C10.4658 30.4147 10.8728 29.9563 11.4008 29.641C11.9362 29.3183 12.5668 29.157 13.2928 29.157C14.0188 29.157 14.6458 29.3183 15.1738 29.641C15.7092 29.9563 16.1162 30.4147 16.3948 31.016C16.6808 31.61 16.8238 32.3103 16.8238 33.117C16.8238 33.9237 16.6808 34.6277 16.3948 35.229C16.1088 35.823 15.6982 36.2813 15.1628 36.604C14.6348 36.9267 14.0115 37.088 13.2928 37.088ZM13.2928 36.318C14.1142 36.318 14.7522 36.043 15.2068 35.493C15.6688 34.9357 15.8998 34.1437 15.8998 33.117C15.8998 32.0903 15.6725 31.302 15.2178 30.752C14.7632 30.202 14.1215 29.927 13.2928 29.927C12.4715 29.927 11.8298 30.2057 11.3678 30.763C10.9132 31.313 10.6858 32.0977 10.6858 33.117C10.6858 34.1363 10.9132 34.9247 11.3678 35.482C11.8298 36.0393 12.4715 36.318 13.2928 36.318ZM18.8992 37.055C18.7599 37.055 18.6499 37.0147 18.5692 36.934C18.4885 36.846 18.4482 36.7323 18.4482 36.593V29.685C18.4482 29.553 18.4885 29.4467 18.5692 29.366C18.6572 29.2853 18.7709 29.245 18.9102 29.245H21.5172C22.3312 29.245 22.9619 29.443 23.4092 29.839C23.8639 30.235 24.0912 30.796 24.0912 31.522C24.0912 32.248 23.8639 32.8127 23.4092 33.216C22.9545 33.6193 22.3239 33.821 21.5172 33.821H19.3502V36.593C19.3502 36.7323 19.3099 36.846 19.2292 36.934C19.1485 37.0147 19.0385 37.055 18.8992 37.055ZM21.4292 33.073C22.6099 33.073 23.2002 32.556 23.2002 31.522C23.2002 30.5027 22.6099 29.993 21.4292 29.993H19.3502V33.073H21.4292Z" fill="black"/>
</svg>
